:version 1.10
:name ASF
:units
  mass 1
  length 1
  angle deg
:documentation
  ASF file generated by Kaydara
:root
  axis xyz
  order  tx ty tz rx ry rz
  position 0 0 0
  orientation 0 0 0
:bonedata
  begin
    id 1
    name RightUpLegDummy
    direction -1 2.30186e-007 8.31532e-007
    length 4.46685
    axis 0 0 0 xyz
  end
  begin
    id 2
    name RightUpLeg
    direction -2.30187e-007 -1 1.24343e-010
    length 16.4045
    axis -3.49089 -0.000906625 0.000286804 xyz
    dof rx ry rz
  end
  begin
    id 3
    name RightLeg
    direction -2.30181e-007 -1 -4.17157e-009
    length 17.5097
    axis 3.68512 0.0193738 -0.131023 xyz
    dof rx ry rz
  end
  begin
    id 4
    name RightFoot
    direction 8.31421e-007 -4.51202e-011 1
    length 6.49508
    axis 4.81691e-005 -0.120479 -0.188788 xyz
    dof rx ry rz
  end
  begin
    id 5
    name RightToes
    direction 0.00124746 -0.014064 0.9999
    length 3.85082
    axis 0.000481921 0.542163 -0.142578 xyz
    dof rx ry rz
  end
  begin
    id 6
    name SpineDummy
    direction 0.0717043 0.9409 -0.331007
    length 10.0032
    axis 0 0 0 xyz
  end
  begin
    id 7
    name Spine
    direction 2.30186e-007 1 4.58806e-011
    length 9.84055
    axis -0.001389 0.000121418 2.40972e-006 xyz
    dof rx ry rz
  end
  begin
    id 8
    name Spine1
    direction 0 0 0
    length 0
    axis -0.001389 0.000121451 1.30017e-006 xyz
    dof rx ry rz
  end
  begin
    id 9
    name HEadDummy
    direction -0.00347485 0.950688 -0.310128
    length 8.00997
    axis -0.001389 0.000121451 1.30017e-006 xyz
  end
  begin
    id 10
    name HEad
    direction -0.0222688 0.980941 0.193023
    length 5.12695
    axis -0.001389 0.000121451 1.30017e-006 xyz
    dof rx ry rz
  end
  begin
    id 11
    name LeftShoulder1Dummy
    direction 0.988871 0.146793 -0.0242004
    length 3.5792
    axis -0.001389 0.000121451 1.30017e-006 xyz
  end
  begin
    id 12
    name LeftShoulder1
    direction 0.993832 0.108932 0.020779
    length 4.16823
    axis -0.001389 0.000121451 1.30017e-006 xyz
    dof rx ry rz
  end
  begin
    id 13
    name LeftArm
    direction 1 3.44807e-006 -8.31404e-007
    length 9.91437
    axis -23.1894 0.134784 0.967509 xyz
    dof rx ry rz
  end
  begin
    id 14
    name LeftForeArm
    direction 1 3.44842e-006 -8.31581e-007
    length 9.08575
    axis -9.91835 -0.06569 -0.177793 xyz
    dof rx ry rz
  end
  begin
    id 15
    name LeftHand
    direction 0.992938 -0.0411636 0.11126
    length 5.32135
    axis -0.00960232 -0.00340091 0.185173 xyz
    dof rx ry rz
  end
  begin
    id 16
    name RightShoulderDummy
    direction -0.988871 0.146793 -0.0241962
    length 3.5792
    axis -0.001389 0.000121451 1.30017e-006 xyz
  end
  begin
    id 17
    name RightShoulder
    direction -0.993832 0.108933 0.0207785
    length 4.16823
    axis 0.215806 0.000203643 -0.0068026 xyz
    dof rx ry rz
  end
  begin
    id 18
    name RightArm
    direction -1 3.90912e-006 8.31284e-007
    length 9.91437
    axis -23.2009 -0.134239 -0.964101 xyz
    dof rx ry rz
  end
  begin
    id 19
    name RightForeArm
    direction -1 3.90882e-006 8.31502e-007
    length 9.08575
    axis -9.92322 0.0658061 0.178867 xyz
    dof rx ry rz
  end
  begin
    id 20
    name RightHand
    direction -0.992843 -0.0414603 0.112003
    length 5.28593
    axis -0.00960638 0.00330671 -0.185228 xyz
    dof rx ry rz
  end
  begin
    id 21
    name LeftUpLegDummy
    direction 1 -2.30186e-007 -8.31532e-007
    length 4.46685
    axis 0 0 0 xyz
  end
  begin
    id 22
    name LeftUpLeg
    direction -2.30187e-007 -1 6.00931e-010
    length 16.4045
    axis -3.48766 0.00143442 -0.000524262 xyz
    dof rx ry rz
  end
  begin
    id 23
    name LeftLeg
    direction -2.30187e-007 -1 1.6669e-009
    length 17.5097
    axis 3.68178 -0.00654042 -0.000285133 xyz
    dof rx ry rz
  end
  begin
    id 24
    name LeftFoot
    direction 8.31532e-007 -4.54478e-011 1
    length 6.49508
    axis 1.87233e-006 4.66016e-005 -8.6538e-006 xyz
    dof rx ry rz
  end
  begin
    id 25
    name LeftToes
    direction 0.00818058 -0.00485161 0.999955
    length 3.85048
    axis 1.06247e-005 4.65869e-005 -8.65513e-006 xyz
    dof rx ry rz
  end
:hierarchy
  begin
    root RightUpLegDummy SpineDummy LeftUpLegDummy
    RightUpLegDummy RightUpLeg
    RightUpLeg RightLeg
    RightLeg RightFoot
    RightFoot RightToes
    SpineDummy Spine
    Spine Spine1
    Spine1 HEadDummy LeftShoulder1Dummy RightShoulderDummy
    HEadDummy HEad
    LeftShoulder1Dummy LeftShoulder1
    LeftShoulder1 LeftArm
    LeftArm LeftForeArm
    LeftForeArm LeftHand
    RightShoulderDummy RightShoulder
    RightShoulder RightArm
    RightArm RightForeArm
    RightForeArm RightHand
    LeftUpLegDummy LeftUpLeg
    LeftUpLeg LeftLeg
    LeftLeg LeftFoot
    LeftFoot LeftToes
  end

:SAMPLES-PER-SECOND 30
:FULLY-SPECIFIED
:DEGREES
20
root  42.0536 33.7416 2.15616 -169.706 -49.2831 177.503
RightUpLeg  -8.30434 -12.984 0.170587
RightLeg  10.3514 -6.92909 -0.805488
RightFoot  -0.316669 -0.000149811 0.0320888
RightToes  -23.5795 -0.100822 -0.203084
Spine  2.58554 -2.78473 2.42947
Spine1  4.46145 -5.7765 4.72275
HEad  37.0031 16.6998 0.607783
LeftShoulder1  0 -2.42657e-020 -4.95415e-022
LeftArm  -33.6293 8.85642 -93.222
LeftForeArm  61.958 -13.4523 -2.36525
LeftHand  0.53953 -10.9559 -5.99519
RightShoulder  0 2.42657e-020 1.07489e-018
RightArm  -50.3784 -24.7272 84.3678
RightForeArm  -30.2883 53.5892 13.7198
RightHand  3.77351 16.0499 26.6835
LeftUpLeg  -10.1225 8.57178 2.41953
LeftLeg  10.1836 -9.21219 -1.04642
LeftFoot  4.04351 0.0392159 -0.727029
LeftToes  -16.3707 1.33192e-006 1.13262e-007
21
root  42.05 33.7417 2.18541 -169.729 -49.2627 177.526
RightUpLeg  -8.31505 -12.9498 0.148689
RightLeg  10.3219 -6.94422 -0.80362
RightFoot  -0.252425 0.000311954 0.0249192
RightToes  -23.6521 -0.100822 -0.203084
Spine  2.586 -2.79377 2.43551
Spine1  4.46576 -5.79088 4.72948
HEad  37.0924 16.6936 0.614645
LeftShoulder1  0 -2.42657e-020 -4.95415e-022
LeftArm  -33.6424 8.93158 -93.1309
LeftForeArm  61.973 -13.4501 -2.36481
LeftHand  0.545225 -10.9992 -6.03193
RightShoulder  0 2.42657e-020 1.07489e-018
RightArm  -50.658 -24.5629 84.5485
RightForeArm  -30.2544 53.3775 13.6118
RightHand  3.75898 16.0221 26.6301
LeftUpLeg  -10.1344 8.57185 2.38871
LeftLeg  10.1748 -9.18375 -1.04181
LeftFoot  4.04229 0.0389935 -0.723573
LeftToes  -16.3678 1.33192e-006 1.13262e-007
22
root  42.0485 33.7421 2.2136 -169.748 -49.2104 177.544
RightUpLeg  -8.34294 -12.8895 0.124647
RightLeg  10.315 -6.95448 -0.798725
RightFoot  -0.208559 0.000604393 0.0203787
RightToes  -23.6879 -0.100822 -0.203084
Spine  2.59957 -2.79276 2.43812
Spine1  4.4959 -5.78684 4.73126
HEad  37.0986 16.6772 0.552467
LeftShoulder1  0 -2.42657e-020 -4.95415e-022
LeftArm  -33.663 8.99333 -92.9923
LeftForeArm  61.862 -13.4655 -2.36792
LeftHand  0.548867 -10.9827 -6.07832
RightShoulder  0 2.42657e-020 1.07489e-018
RightArm  -50.978 -24.4186 84.7201
RightForeArm  -30.1443 53.1918 13.5184
RightHand  3.75609 16.025 26.6059
LeftUpLeg  -10.1475 8.51251 2.35957
LeftLeg  10.1766 -9.07649 -1.03004
LeftFoot  4.04172 0.0384006 -0.714358
LeftToes  -16.3509 1.33192e-006 1.13262e-007
23
root  42.048 33.7429 2.23892 -169.77 -49.1647 177.562
RightUpLeg  -8.35165 -12.8694 0.104973
RightLeg  10.2772 -6.93677 -0.795936
RightFoot  -0.162172 0.000927966 0.0153548
RightToes  -23.6536 -0.100822 -0.203084
Spine  2.60887 -2.79027 2.44012
Spine1  4.52061 -5.77793 4.73102
HEad  37.1099 16.6795 0.511485
LeftShoulder1  0 -2.42657e-020 -4.95415e-022
LeftArm  -33.6234 9.04656 -92.8481
LeftForeArm  62.0113 -13.3978 -2.35501
LeftHand  0.528397 -10.8801 -5.91786
RightShoulder  0 2.42657e-020 1.07489e-018
RightArm  -51.2049 -24.3661 84.8218
RightForeArm  -30.0921 53.0635 13.4542
RightHand  3.75252 16.0455 26.5491
LeftUpLeg  -10.1475 8.50169 2.33622
LeftLeg  10.1583 -9.0321 -1.02214
LeftFoot  4.03584 0.0380429 -0.708799
LeftToes  -16.2701 1.33192e-006 1.13262e-007
24
root  42.0472 33.745 2.26472 -169.786 -49.1436 177.575
RightUpLeg  -8.35022 -12.852 0.0830953
RightLeg  10.2262 -6.93891 -0.79129
RightFoot  -0.103071 0.00134878 0.00882099
RightToes  -23.6872 -0.100822 -0.203084
Spine  2.61678 -2.79338 2.4402
Spine1  4.54208 -5.78151 4.72961
HEad  37.1196 16.6655 0.494264
LeftShoulder1  0 -2.42657e-020 -4.95415e-022
LeftArm  -33.7077 9.06727 -92.6856
LeftForeArm  62.0772 -13.2999 -2.33669
LeftHand  0.525959 -10.8194 -5.92344
RightShoulder  0 2.42657e-020 1.07489e-018
RightArm  -51.3589 -24.3619 84.8625
RightForeArm  -30.1241 52.9373 13.391
RightHand  3.74214 16.003 26.5469
LeftUpLeg  -10.1504 8.47688 2.30645
LeftLeg  10.1315 -8.98659 -1.0128
LeftFoot  4.05345 0.0379164 -0.706834
LeftToes  -16.2333 1.33192e-006 1.13262e-007
25
root  42.0463 33.7466 2.28947 -169.794 -49.1371 177.571
RightUpLeg  -8.35385 -12.84 0.0500442
RightLeg  10.2001 -6.94264 -0.788513
RightFoot  -0.0466627 0.00174625 0.00264964
RightToes  -23.7861 -0.100822 -0.203084
Spine  2.62593 -2.80099 2.43511
Spine1  4.56507 -5.795 4.71943
HEad  37.0996 16.6486 0.528987
LeftShoulder1  0 -2.42657e-020 -4.95415e-022
LeftArm  -33.9492 9.05411 -92.5146
LeftForeArm  62.1777 -13.1563 -2.30984
LeftHand  0.525431 -10.8925 -5.97534
RightShoulder  0 2.42657e-020 1.07489e-018
RightArm  -51.4333 -24.4385 84.87
RightForeArm  -30.1074 52.8685 13.3569
RightHand  3.75611 15.9868 26.6674
LeftUpLeg  -10.1625 8.43605 2.26997
LeftLeg  10.1289 -8.94094 -1.00729
LeftFoot  4.0599 0.0378621 -0.70599
LeftToes  -16.192 1.33192e-006 1.13262e-007
